# xmcd
#
# Track frame offsets: 
#        150
#        20925
#        31135
#        33370
#        44988
#        55897
#        67042
#        90624
#        145901
#        169820
#        207609
#        218782
#        234579
#        236319
#        243855
#        250488
#        262401
#        285729
#
# Disc length: 4403 seconds
#
# Revision: 1
# Processed by: cddbd v1.5.2PL0 Copyright (c) Steve Scherf et al.
# Submitted via: ExactAudioCopyFreeDBPlugin 1.0
#
DISCID=1b113112
DTITLE=Rush - Spirit of the Airwaves
DYEAR=1980
DGENRE=Progressive Rock
TTITLE0=2112: Overture
TTITLE1=The Temples Of Syrinx
TTITLE2=Discovery
TTITLE3=Presentation
TTITLE4=Soliloquy
TTITLE5=Grand Finale
TTITLE6=By-Tor And The Snow Dog
TTITLE7=Xanadu
TTITLE8=The Spirit Of Radio
TTITLE9=Natural Science
TTITLE10=Beneath, Between, Behind
TTITLE11=Working Man
TTITLE12=Finding My Way Intro
TTITLE13=Anthem
TTITLE14=Bastille Day
TTITLE15=In The Mood
TTITLE16=Drum Solo
TTITLE17=La Villa Strangiato
EXTD=
EXTT0=
EXTT1=
EXTT2=
EXTT3=
EXTT4=
EXTT5=
EXTT6=
EXTT7=
EXTT8=
EXTT9=
EXTT10=
EXTT11=
EXTT12=
EXTT13=
EXTT14=
EXTT15=
EXTT16=
EXTT17=
PLAYORDER=
